<svg width="1095" height="410" viewBox="0 0 1095 410" fill="none" xmlns="http://www.w3.org/2000/svg">
<path d="M180.963 354.819C169.136 351.553 157.63 347.907 146.543 344.095C137.357 349.53 131.94 361.559 131.259 373.518C129.99 395.793 153.325 409.5 175.637 409.5C203.224 409.5 214.018 392.708 214.018 383.113V368.72C214.018 368.72 203.224 399.905 175.637 399.905C162.444 399.905 152.848 392.708 152.848 392.708H163.643C178.036 392.708 184.486 379.336 184.033 366.321C183.887 362.119 182.797 358.226 180.963 354.819Z" fill="#FF5C85"/>
<path d="M146.543 344.095C157.63 347.907 169.136 351.553 180.963 354.819C176.731 346.954 168.536 341.674 158.845 341.133C154.217 340.875 150.098 341.991 146.543 344.095Z" fill="#FF5C85"/>
<path d="M130.06 219.993C138.543 203.968 162.112 179.409 180.919 158.869C176.674 135.911 173.814 120.441 173.814 120.441C173.814 120.441 120.675 167.116 108.47 207.999C104.923 219.882 102.473 226.782 102.473 239.183C102.473 314.746 173.238 319.544 182.834 319.544C193.339 319.544 202.337 318.362 210.044 316.313C209.557 313.682 209.05 310.946 208.527 308.118C202.443 310.02 195.156 311.148 186.432 311.148C178.036 311.148 124.062 305.151 124.062 253.576C124.062 240.254 123.826 231.767 130.06 219.993Z" fill="#FF5C85"/>
<path d="M200.825 225.99C218.816 225.99 238.007 241.582 239.206 265.57C239.307 267.579 240.082 298.254 208.527 308.118L210.044 316.313C257.776 303.626 255.998 257.707 255.998 253.576C255.998 218.793 233.569 200.276 204.423 199.603C199.042 199.478 193.79 200.151 188.805 201.515C190.326 209.739 191.894 218.222 193.477 226.777C195.844 226.261 198.303 225.99 200.825 225.99Z" fill="#FF5C85"/>
<path d="M182.834 287.16C182.834 287.16 166.972 271.156 167.241 258.374C167.573 242.679 178.739 229.989 193.477 226.777L188.805 201.515C167.086 207.459 150.45 226.528 150.45 249.978C150.45 266.77 167.241 287.16 173.238 287.16H182.834Z" fill="#FF5C85"/>
<path d="M167.241 71.2654C167.797 86.8258 172.039 110.846 172.039 110.846C172.039 110.846 172.859 100.381 173.814 92.8548C174.769 85.3284 174.83 80.9808 176.837 73.6642C182.301 53.7426 192.429 29.2859 205.623 29.2859C214.067 29.2859 217.617 38.8329 217.617 47.2771C217.617 78.4619 173.814 120.441 173.814 120.441C173.814 120.441 176.674 135.911 180.919 158.869C186.042 153.273 190.812 147.976 194.828 143.23C208.021 127.638 229.611 100.051 229.611 71.2654V44.8783C229.611 36.4824 224.813 0.5 202.024 0.5C186.432 0.5 170.134 29.5652 167.241 54.4736C166.485 60.9874 167.007 64.712 167.241 71.2654Z" fill="#FF5C85"/>
<path d="M571.523 79.5975C571.481 78.3707 570.335 77.4743 569.129 77.7052C505.496 89.8887 469.424 97.7217 407.484 112.863C406.58 113.084 405.933 113.904 405.944 114.834L406.431 154.025C468.755 129.102 504.944 118.829 572.545 109.647L571.523 79.5975Z" fill="#17ABB4"/>
<path d="M340.599 359.873C371.302 350.245 389.472 333.926 404.071 316.436C402.238 309.24 395.265 295.556 368.743 295.556C346.49 295.556 324.676 310.503 325.564 332.738C326.023 344.23 331.905 353.724 340.599 359.873Z" fill="#17ABB4"/>
<path d="M365.145 367.521C406.1 367.635 404.725 320.743 404.725 320.743C404.725 320.743 404.725 319.002 404.071 316.436C389.472 333.926 371.302 350.245 340.599 359.873C347.459 364.726 356.069 367.495 365.145 367.521Z" fill="#17ABB4"/>
<path d="M493.482 289.559C493.485 305.47 507.555 317.145 523.467 317.145C571.444 317.145 575.042 270.368 575.042 270.368C570.291 252.128 563.226 246.404 544.189 242.782C544.175 244.703 493.474 252.903 493.482 289.559Z" fill="#17ABB4"/>
<path d="M801.731 31.6848V274.888C806.283 278.753 810.62 283.444 814.924 288.554V179.213H832.916C895.285 179.213 884.49 271.567 884.49 271.567L898.883 230.787C910.313 198.403 844.91 145.629 814.924 115.644H835.315C861.462 115.644 901.743 169.82 902.472 182.474C902.414 180.48 902.141 170.095 902.482 163.62C904.881 118.043 841.312 92.8548 841.312 92.8548C806.529 78.4619 801.731 31.6848 801.731 31.6848Z" fill="#FFCC00"/>
<path d="M750.156 333.937C777.664 333.937 801.731 312.348 801.731 285.96V274.888C793.579 267.965 784.734 263.685 774.144 264.371C727.517 267.389 722.57 297.954 722.57 311.148C722.57 317.334 725.998 325.366 732.73 332.153C738.331 333.308 744.117 333.937 750.156 333.937Z" fill="#FFCC00"/>
<path d="M801.731 285.96C801.731 312.348 777.664 333.937 750.156 333.937C744.117 333.937 738.331 333.308 732.73 332.153C740.356 339.841 752.221 345.931 768.147 345.931C798.133 345.931 814.924 313.547 814.924 297.954V288.554C810.62 283.444 806.283 278.753 801.731 274.888V285.96Z" fill="#FFCC00"/>
<path d="M46.1004 321.943C46.1004 321.943 -0.67658 329.139 0.522664 313.547C1.29388 303.519 13.2545 301.553 23.3115 301.553C45.5534 301.553 90.7541 324.914 146.543 344.095M801.731 285.96C801.731 312.348 777.664 333.937 750.156 333.937C744.117 333.937 738.331 333.308 732.73 332.153M801.731 285.96C801.731 186.66 801.731 31.6848 801.731 31.6848M801.731 285.96V274.888M801.731 274.888V31.6848C801.731 31.6848 806.529 78.4619 841.312 92.8548C841.312 92.8548 904.881 118.043 902.482 163.62C902.141 170.095 902.414 180.48 902.472 182.474M814.924 115.644C844.91 145.629 910.313 198.403 898.883 230.787M814.924 115.644C814.924 115.644 808.927 115.644 835.315 115.644M814.924 115.644H835.315M814.924 288.554C814.924 262.338 814.924 201.011 814.924 179.213C814.924 179.213 824.953 179.213 832.916 179.213M814.924 179.213V288.554M814.924 179.213H832.916M1093.19 353.128C1097.99 313.547 1083.59 306.35 1054.81 306.35C1026.02 306.35 971.412 337.279 902.482 345.931C857.949 351.521 836.853 314.586 814.924 288.554M814.924 297.954C814.924 313.547 798.133 345.931 768.147 345.931C752.221 345.931 740.356 339.841 732.73 332.153M814.924 297.954V288.554M814.924 297.954C814.924 295.857 814.924 292.629 814.924 288.554M832.916 179.213C895.285 179.213 884.49 271.567 884.49 271.567M898.883 230.787L884.49 271.567C884.49 271.567 884.49 271.567 898.883 230.787ZM835.315 115.644C861.462 115.644 901.743 169.82 902.472 182.474M163.643 392.708C178.036 392.708 184.486 379.336 184.033 366.321C183.887 362.119 182.797 358.226 180.963 354.819M214.018 368.72C214.018 368.72 203.224 399.905 175.637 399.905C162.444 399.905 152.848 392.708 152.848 392.708C152.848 392.708 159.427 392.708 163.643 392.708M163.643 392.708H152.848M214.018 368.72C214.018 368.72 214.234 338.941 210.42 318.345C210.296 317.675 210.171 316.997 210.044 316.313M214.018 368.72C214.018 368.72 214.018 375.916 214.018 383.113M214.018 368.72V383.113M173.814 120.441L172.039 110.846C172.039 110.846 167.797 86.8258 167.241 71.2654C167.007 64.712 166.485 60.9874 167.241 54.4736C170.134 29.5652 186.432 0.5 202.024 0.5C224.813 0.5 229.611 36.4824 229.611 44.8783M172.039 110.846C172.039 110.846 172.859 100.381 173.814 92.8548C174.769 85.3284 174.83 80.9808 176.837 73.6642C182.301 53.7426 192.429 29.2859 205.623 29.2859C214.067 29.2859 217.617 38.8329 217.617 47.2771C217.617 78.4619 173.814 120.441 173.814 120.441M229.611 44.8783C229.611 52.0748 229.611 60.9606 229.611 71.2654M229.611 44.8783V71.2654M229.611 71.2654C229.611 100.051 208.021 127.638 194.828 143.23C190.812 147.976 186.042 153.273 180.919 158.869M173.238 287.16C177.922 287.16 182.834 287.16 182.834 287.16C182.834 287.16 166.972 271.156 167.241 258.374C167.573 242.679 178.739 229.989 193.477 226.777M182.834 287.16H173.238M173.238 287.16C167.241 287.16 150.45 266.77 150.45 249.978C150.45 226.528 167.086 207.459 188.805 201.515M173.814 120.441C173.814 120.441 120.675 167.116 108.47 207.999C104.923 219.882 102.473 226.782 102.473 239.183C102.473 314.746 173.238 319.544 182.834 319.544C193.339 319.544 202.337 318.362 210.044 316.313M173.814 120.441C173.814 120.441 176.674 135.911 180.919 158.869M214.018 383.113C214.018 392.708 203.224 409.5 175.637 409.5C153.325 409.5 129.99 395.793 131.259 373.518C131.94 361.559 137.357 349.53 146.543 344.095M404.071 316.436C404.725 319.002 404.725 320.743 404.725 320.743C404.725 320.743 406.1 367.635 365.145 367.521C356.069 367.495 347.459 364.726 340.599 359.873M572.545 109.647L571.523 79.5975C571.481 78.3707 570.335 77.4743 569.129 77.7052C505.496 89.8887 469.425 97.7217 407.484 112.863C406.58 113.084 405.933 113.904 405.944 114.834L406.431 154.025C406.431 154.025 408.323 247.579 408.323 306.35C408.323 312.144 404.725 320.743 404.725 320.743M544.189 242.782C536.838 242.001 529.143 241.582 521.068 241.582C448.26 241.582 433.344 281.364 404.071 316.436M544.189 242.782C544.175 244.703 493.474 252.903 493.482 289.559C493.485 305.47 507.555 317.145 523.467 317.145C571.444 317.145 575.042 270.368 575.042 270.368M544.189 242.782C563.226 246.404 570.291 252.128 575.042 270.368M544.189 242.782C637.01 252.642 675.048 320.261 732.73 332.153M575.042 270.368L577.416 253.751C577.432 253.635 577.439 253.517 577.435 253.4L572.545 109.647M406.431 154.025C468.755 129.102 504.944 118.829 572.545 109.647M180.963 354.819C169.136 351.553 157.63 347.907 146.543 344.095M180.963 354.819C176.731 346.954 168.536 341.674 158.845 341.133C154.217 340.875 150.098 341.991 146.543 344.095M180.963 354.819C212.317 363.476 245.928 369.452 279.986 368.72C304.587 368.191 324.348 364.969 340.599 359.873M180.919 158.869C162.112 179.409 138.543 203.968 130.059 219.993C123.826 231.767 124.062 240.254 124.062 253.576C124.062 305.151 178.036 311.148 186.432 311.148C195.156 311.148 202.443 310.02 208.527 308.118M180.919 158.869C183.219 171.309 185.926 185.948 188.805 201.515M210.044 316.313C209.557 313.682 209.05 310.946 208.527 308.118M210.044 316.313C257.776 303.626 255.998 257.707 255.998 253.576C255.998 218.793 233.569 200.276 204.423 199.603C199.042 199.478 193.79 200.151 188.805 201.515M210.044 316.313L208.527 308.118M208.527 308.118C240.082 298.254 239.307 267.579 239.206 265.57C238.007 241.582 218.816 225.99 200.825 225.99C198.303 225.99 195.844 226.261 193.477 226.777M208.527 308.118C204.225 284.882 198.776 255.425 193.477 226.777M188.805 201.515C190.326 209.739 191.894 218.222 193.477 226.777M188.805 201.515L193.477 226.777M340.599 359.873C371.302 350.245 389.472 333.926 404.071 316.436M340.599 359.873C331.905 353.724 326.023 344.23 325.564 332.738C324.676 310.503 346.49 295.556 368.743 295.556C395.265 295.556 402.238 309.24 404.071 316.436M801.731 274.888C793.579 267.965 784.734 263.685 774.144 264.371C727.517 267.389 722.57 297.954 722.57 311.148C722.57 317.334 725.998 325.366 732.73 332.153M801.731 274.888C806.283 278.753 810.62 283.444 814.924 288.554M902.472 182.474C902.478 182.693 902.482 182.811 902.482 182.811C902.482 182.702 902.478 182.59 902.472 182.474Z" stroke="#141414" stroke-linecap="round"/>
</svg>
