<svg width="300" height="300" viewBox="0 0 300 300" fill="none" xmlns="http://www.w3.org/2000/svg">
<path d="M279 149.5C279 220.469 221.469 278 150.5 278C79.5314 278 22 220.469 22 149.5C22 78.5314 79.5314 21 150.5 21C221.469 21 279 78.5314 279 149.5ZM54.125 149.5C54.125 202.726 97.2736 245.875 150.5 245.875C203.726 245.875 246.875 202.726 246.875 149.5C246.875 96.2736 203.726 53.125 150.5 53.125C97.2736 53.125 54.125 96.2736 54.125 149.5Z" fill="white"/>
<path d="M260.383 125.67C269.053 123.79 274.652 115.188 271.705 106.821C265.098 88.0569 254.197 71.0101 239.786 57.0863C221.508 39.4272 198.404 27.5847 173.396 23.0563C148.388 18.5278 122.599 21.5169 99.2891 31.6455C80.9101 39.6316 64.7238 51.7735 51.9565 67.0291C46.2631 73.8321 48.4905 83.8506 55.9503 88.6514V88.6514C63.4101 93.4523 73.2611 91.1818 79.233 84.6219C88.3611 74.595 99.5452 66.5609 112.092 61.1091C129.574 53.5127 148.916 51.2709 167.672 54.6672C186.428 58.0635 203.756 66.9454 217.464 80.1897C227.303 89.6949 234.959 101.141 239.992 113.732C243.284 121.969 251.714 127.55 260.383 125.67V125.67Z" fill="#E6E6E6"/>
</svg>
